<?xml version="1.0" standalone="no"?>
<!DOCTYPE svg PUBLIC "-//W3C//DTD SVG 20010904//EN"
 "http://www.w3.org/TR/2001/REC-SVG-20010904/DTD/svg10.dtd">
<svg version="1.0" xmlns="http://www.w3.org/2000/svg"
 width="600.000000pt" height="633.000000pt" viewBox="0 0 600.000000 633.000000"
 preserveAspectRatio="xMidYMid meet">
<g transform="translate(0.000000,633.000000) scale(0.100000,-0.100000)"
fill="#000000" stroke="none">
<path d="M3853 5973 c-107 -81 -122 -94 -292 -258 -194 -186 -273 -264 -397
-396 -156 -164 -174 -185 -383 -424 -14 -17 -55 -64 -91 -105 -87 -99 -310
-373 -391 -480 -35 -47 -66 -87 -69 -90 -3 -3 -70 -92 -150 -197 -129 -173
-174 -224 -156 -178 3 9 19 63 36 121 17 58 35 115 40 127 40 96 175 475 204
572 20 66 41 134 46 151 23 70 12 133 -21 134 -17 0 -64 -49 -119 -123 -33
-45 -65 -87 -70 -93 -36 -45 -263 -396 -329 -510 -82 -140 -447 -861 -440
-868 2 -2 15 -6 27 -8 20 -2 27 5 46 52 63 152 340 692 440 855 88 146 79 132
175 275 156 233 246 355 249 337 6 -33 -66 -258 -178 -557 -94 -249 -160 -469
-160 -531 0 -23 4 -29 23 -29 12 0 29 6 37 13 29 24 190 221 190 233 0 4 7 14
15 23 8 9 61 77 117 151 127 169 262 339 397 500 95 113 184 214 440 502 105
118 514 526 631 629 143 126 211 182 215 178 2 -3 -32 -61 -75 -129 -43 -69
-94 -150 -113 -180 -42 -68 -169 -267 -302 -474 -55 -86 -107 -167 -115 -180
-24 -38 -188 -293 -245 -381 -85 -131 -118 -184 -200 -315 -43 -69 -92 -147
-109 -175 -17 -27 -35 -57 -41 -67 -5 -10 -39 -66 -75 -125 -71 -120 -184
-314 -328 -563 -52 -91 -103 -181 -115 -200 -73 -128 -197 -354 -197 -360 0
-9 -50 -39 -145 -89 -33 -18 -76 -41 -95 -53 -19 -11 -64 -36 -100 -56 -36
-19 -92 -51 -125 -70 -33 -19 -73 -42 -90 -52 -78 -44 -190 -116 -193 -122 -2
-5 -8 -8 -13 -8 -4 0 -49 -28 -100 -62 -50 -35 -100 -70 -112 -78 -36 -24
-230 -171 -263 -199 -55 -46 -72 -59 -98 -76 -20 -13 -26 -26 -26 -51 l0 -35
108 89 c130 107 311 242 412 307 41 27 107 70 147 97 39 26 74 48 77 48 3 0
37 20 76 45 39 25 72 45 74 45 2 0 34 18 71 41 37 22 74 43 83 46 10 4 32 18
50 31 18 14 35 23 37 20 7 -7 -32 -40 -125 -103 -47 -32 -104 -73 -127 -92
-23 -18 -44 -33 -47 -33 -3 0 -46 -30 -95 -67 -49 -38 -99 -75 -111 -83 -30
-20 -160 -116 -186 -138 -12 -9 -28 -21 -37 -27 -8 -5 -61 -44 -118 -85 -56
-41 -125 -91 -153 -110 -28 -19 -57 -40 -64 -48 -8 -7 -27 -19 -43 -27 -22
-12 -29 -23 -29 -45 0 -28 14 -41 22 -22 2 5 41 35 88 67 88 61 197 138 215
152 19 15 161 120 228 169 38 27 74 54 80 59 7 6 35 26 62 45 28 19 57 40 65
47 14 11 171 126 348 255 126 91 165 126 156 140 -4 7 -3 8 4 4 17 -10 15 -24
-7 -54 -17 -25 -80 -137 -175 -314 -20 -38 -52 -98 -72 -135 -20 -38 -49 -90
-64 -118 -15 -27 -67 -124 -115 -215 -48 -91 -95 -178 -105 -195 -17 -29 -69
-129 -205 -390 -37 -71 -80 -153 -96 -181 -37 -68 -309 -611 -309 -618 0 -3
-13 -34 -28 -68 -52 -114 -66 -158 -54 -170 6 -6 17 -8 24 -6 11 5 70 97 151
233 7 11 14 22 17 25 3 3 47 73 98 155 130 210 153 245 358 555 155 234 228
341 341 497 101 141 408 537 444 573 8 8 33 38 54 65 22 28 54 66 71 85 129
146 226 254 273 305 31 33 99 107 151 165 52 57 134 145 181 195 48 49 102
106 120 126 19 20 61 48 94 64 33 15 71 33 85 40 14 7 88 41 165 75 77 34 163
72 190 85 28 13 84 38 125 55 94 41 148 64 228 101 35 16 67 29 72 29 4 0 25
9 47 20 21 10 92 40 158 65 66 26 129 50 140 55 41 17 81 30 100 34 11 2 28 7
38 11 13 5 16 3 11 -8 -3 -8 -1 -18 4 -21 5 -3 7 -17 4 -31 -2 -14 0 -25 6
-25 6 0 12 -12 14 -27 2 -17 10 -29 21 -31 19 -4 49 26 43 43 -2 6 1 18 5 27
6 10 5 19 -1 23 -18 11 -10 23 20 28 62 12 119 39 145 67 30 33 16 55 -37 56
-48 1 -218 -37 -250 -56 -10 -5 -23 -10 -29 -10 -24 0 -265 -92 -407 -156 -29
-13 -55 -24 -58 -24 -3 0 -58 -23 -123 -51 -64 -28 -136 -60 -161 -71 -25 -10
-63 -28 -85 -38 -22 -10 -61 -28 -87 -39 -90 -39 -143 -64 -245 -112 -56 -27
-105 -49 -109 -49 -4 0 6 12 22 26 16 15 110 106 209 203 99 97 220 212 269
256 154 138 188 169 306 276 63 57 167 150 230 205 208 183 216 191 202 205
-10 11 -19 10 -47 -5 -19 -11 -35 -22 -35 -26 0 -4 -17 -19 -37 -33 -21 -14
-49 -36 -63 -49 -14 -12 -65 -54 -113 -93 -102 -81 -264 -210 -289 -230 -153
-125 -734 -560 -800 -600 -17 -10 -420 -300 -468 -337 -48 -37 -206 -151 -270
-196 -36 -25 -80 -59 -97 -76 -39 -35 -53 -29 -26 11 11 15 55 91 98 168 43
77 95 168 116 202 22 34 39 64 39 66 0 4 29 54 154 269 31 54 80 140 110 190
72 125 191 322 316 524 15 25 167 262 277 433 34 53 85 132 113 176 28 44 104
163 170 265 322 499 488 768 495 801 7 32 -7 59 -31 59 -7 0 -53 -30 -101 -67z
m-243 -2074 c-19 -18 -78 -70 -130 -117 -52 -47 -186 -177 -298 -289 l-202
-203 -103 -46 c-56 -26 -198 -96 -316 -155 -118 -60 -216 -107 -219 -105 -2 2
16 17 40 33 81 55 153 106 189 134 20 16 41 29 47 29 6 0 12 4 14 8 2 4 39 33
83 65 134 95 226 161 239 172 6 6 19 15 28 20 9 6 63 44 119 86 57 41 138 100
180 130 76 55 258 196 314 243 43 36 56 32 15 -5z m1016 2 c-8 -12 -155 -46
-163 -37 -10 9 -4 11 82 32 85 21 91 21 81 5z m-1828 -808 c-107 -110 -219
-231 -273 -293 -16 -19 -54 -62 -85 -95 -57 -63 -176 -196 -211 -236 -22 -26
-81 -95 -117 -137 -28 -34 -24 -28 -140 -175 -167 -209 -399 -521 -455 -610
-10 -16 -22 -34 -27 -40 -22 -26 -296 -439 -340 -512 -13 -22 -27 -42 -30 -45
-3 -3 -48 -72 -98 -155 -51 -82 -97 -157 -102 -165 -5 -8 -23 -37 -39 -65 -61
-100 -29 -23 75 181 58 115 116 227 129 249 12 22 57 108 100 190 72 139 192
367 288 545 22 41 102 190 177 330 75 140 148 275 162 300 35 63 86 158 148
275 53 100 85 145 103 145 6 0 19 8 30 18 19 17 799 410 806 405 2 -1 -43 -51
-101 -110z"/>
</g>
</svg>
