<?xml version="1.0" standalone="no"?>
<!DOCTYPE svg PUBLIC "-//W3C//DTD SVG 20010904//EN"
 "http://www.w3.org/TR/2001/REC-SVG-20010904/DTD/svg10.dtd">
<svg version="1.0" xmlns="http://www.w3.org/2000/svg"
 width="1800.000000pt" height="840.000000pt" viewBox="0 0 1800.000000 840.000000"
 preserveAspectRatio="xMidYMid meet">
<g transform="translate(0.000000,840.000000) scale(0.100000,-0.100000)"
fill="#000000" stroke="none">
<path d="M950 7485 c-6 -16 -9 -1228 -7 -3255 2 -2859 4 -3232 17 -3240 9 -6
3020 -10 8095 -10 7298 0 8083 2 8103 16 l22 15 0 3239 c0 3192 0 3239 -19
3250 -14 7 -2552 10 -8111 10 l-8090 0 -10 -25z m4028 -121 l22 -6 0 -1794 0
-1794 -1950 0 c-1553 0 -1950 3 -1950 13 -3 643 2 3572 6 3578 6 10 3835 13
3872 3z m12041 -8 c8 -9 10 -222 9 -782 l-3 -769 -5918 -3 c-4068 -1 -5924 1
-5938 8 -19 10 -19 29 -19 768 0 416 4 762 8 768 4 6 14 14 22 17 8 3 2673 6
5921 6 4969 1 5908 -1 5918 -13z m6 -1728 c3 -13 4 -435 3 -938 l-3 -915
-5935 0 -5935 0 -3 918 c-1 622 1 924 8 938 11 19 78 19 5935 19 l5925 0 5
-22z m-30 -3248 l0 -1235 -7918 -3 c-5447 -1 -7924 1 -7938 8 -19 11 -19 34
-19 1228 0 934 3 1221 12 1230 9 9 1781 11 7938 10 l7925 -3 0 -1235z"/>
<path d="M2016 7132 c-3 -5 4 -33 16 -63 11 -30 24 -70 29 -89 10 -44 56 -185
75 -228 8 -18 14 -41 14 -50 0 -10 7 -27 15 -38 8 -10 15 -28 15 -39 0 -11 20
-78 45 -150 25 -71 45 -139 45 -150 0 -12 4 -25 9 -30 5 -6 26 -64 46 -130 20
-66 43 -132 51 -147 23 -44 18 -81 -19 -116 -18 -18 -37 -32 -41 -32 -5 0 -23
-12 -41 -27 -18 -16 -75 -57 -125 -93 -51 -36 -106 -77 -124 -91 -17 -14 -49
-38 -71 -53 -67 -44 -109 -76 -136 -102 -14 -13 -28 -24 -33 -24 -8 0 -168
-119 -177 -133 -4 -5 -16 -14 -27 -20 -71 -40 -182 -124 -182 -139 0 -10 3
-18 8 -19 4 0 281 -2 616 -4 694 -4 619 8 650 -105 11 -36 31 -99 47 -140 24
-64 87 -254 161 -485 10 -33 32 -94 47 -135 16 -41 31 -86 34 -100 3 -14 15
-50 27 -80 12 -30 25 -69 29 -86 10 -39 42 -87 51 -77 4 4 15 33 25 63 9 30
23 69 30 85 8 17 23 64 35 105 12 41 26 83 31 92 5 10 9 24 9 33 0 8 6 29 14
47 8 18 22 60 31 93 10 33 22 69 26 80 18 42 49 141 49 158 0 11 6 31 14 45 8
15 22 54 32 87 9 33 28 92 41 130 14 39 28 84 32 100 13 46 33 85 45 85 6 0
287 0 624 1 598 0 612 0 612 19 0 11 -10 25 -22 31 -13 6 -34 22 -48 34 -14
13 -50 40 -81 62 -31 21 -112 80 -180 132 -68 51 -134 97 -145 101 -12 5 -23
13 -25 18 -2 5 -25 24 -50 43 -65 48 -230 172 -321 241 -43 32 -82 58 -87 58
-6 0 -15 9 -21 20 -12 23 3 125 21 135 5 4 9 15 9 25 0 11 6 34 14 52 8 18 24
69 35 113 12 44 25 89 30 100 4 11 16 47 26 80 9 33 23 74 30 91 8 17 27 80
44 139 17 59 38 120 46 135 8 16 15 36 15 45 0 19 55 194 76 242 15 36 9 67
-13 59 -7 -3 -42 -26 -76 -51 -34 -25 -120 -88 -192 -140 -71 -51 -146 -106
-167 -122 -20 -15 -62 -46 -93 -68 -51 -36 -252 -183 -330 -242 -80 -61 -145
-103 -160 -103 -8 0 -63 35 -121 78 -58 42 -167 122 -242 177 -76 55 -153 111
-172 125 -19 13 -76 55 -127 92 -51 37 -95 68 -99 68 -5 0 -19 11 -33 24 -28
27 -69 57 -148 111 -28 19 -54 39 -58 45 -8 12 -32 13 -39 2z"/>
<path d="M14525 7060 c-11 -5 -37 -9 -59 -9 -59 -1 -295 -39 -347 -56 -26 -8
-60 -15 -76 -15 -16 0 -33 -4 -39 -10 -5 -5 -30 -14 -54 -19 -133 -28 -347
-123 -414 -183 -17 -16 -34 -28 -38 -28 -4 0 -28 -27 -53 -61 -40 -51 -48 -68
-52 -117 -8 -87 10 -135 71 -195 66 -66 112 -102 156 -123 19 -9 42 -21 50
-26 19 -10 55 -27 100 -45 19 -8 43 -18 52 -23 10 -6 26 -10 36 -10 10 0 22
-4 28 -9 8 -9 50 -20 239 -62 58 -14 138 -26 240 -39 50 -6 122 -17 160 -23
155 -26 680 -12 895 24 36 6 88 13 115 16 28 3 54 9 60 14 5 5 18 9 30 9 48 0
271 57 342 87 17 7 36 13 43 13 6 0 38 13 71 30 205 101 334 245 316 354 -9
54 -47 124 -86 156 -20 16 -45 37 -55 46 -76 67 -264 159 -388 190 -35 9 -67
20 -73 25 -5 5 -25 9 -45 9 -20 0 -40 4 -45 9 -8 8 -131 29 -385 67 -70 10
-773 14 -795 4z m-55 -121 c-100 -88 -170 -171 -170 -200 0 -5 -7 -20 -15 -32
-19 -29 -45 -156 -41 -199 15 -147 71 -245 220 -383 36 -34 20 -48 -32 -29
-20 7 -51 13 -68 14 -16 0 -34 4 -40 9 -5 5 -39 21 -76 34 -154 56 -296 164
-348 267 -24 47 -28 173 -6 223 32 73 196 217 249 217 8 0 20 7 27 15 7 8 19
15 27 15 9 0 41 11 72 25 55 25 163 53 211 54 24 1 23 0 -10 -30z m933 15 c40
-8 90 -24 112 -34 22 -10 68 -30 103 -44 308 -130 394 -365 201 -556 -28 -27
-85 -69 -127 -94 -96 -56 -350 -145 -382 -134 -7 2 20 37 59 77 88 91 138 186
154 295 25 170 -43 340 -179 451 -71 58 -61 65 59 39z m-1259 -12 c6 -10 -34
-41 -91 -70 -73 -38 -156 -124 -198 -206 -35 -69 -37 -79 -33 -142 7 -113 64
-207 174 -292 23 -18 50 -35 60 -40 11 -4 43 -20 73 -36 47 -24 52 -30 37 -38
-13 -7 -33 -6 -70 5 -28 9 -80 23 -116 32 -145 37 -283 97 -389 169 -81 56
-119 101 -141 165 -21 63 6 137 72 202 27 27 56 49 63 49 6 0 31 13 53 30 67
48 158 89 267 120 17 5 62 17 100 28 39 11 81 22 95 25 14 2 28 5 32 6 4 0 9
-3 12 -7z m1656 -29 c203 -60 291 -96 350 -143 21 -16 42 -30 48 -30 5 0 37
-29 70 -65 95 -101 101 -172 24 -263 -70 -83 -244 -184 -387 -226 -33 -10 -78
-24 -100 -32 -23 -8 -55 -14 -73 -14 -18 0 -49 -7 -68 -15 -24 -10 -42 -12
-53 -6 -14 8 -13 11 9 20 14 6 32 15 40 20 8 4 33 17 55 27 67 32 124 74 152
112 15 20 33 42 40 48 7 6 24 37 38 68 38 85 32 187 -17 280 -30 58 -126 143
-203 181 -51 25 -90 62 -73 67 18 6 52 0 148 -29z m-791 -42 c27 -21 22 -54
-10 -72 -46 -24 -96 54 -51 80 24 14 34 13 61 -8z m-94 -88 c30 -20 112 -17
142 7 34 27 65 25 93 -4 30 -33 21 -52 -35 -77 -63 -28 -103 -33 -153 -20 -54
15 -90 48 -98 89 -6 29 -4 32 12 26 11 -4 28 -13 39 -21z m-75 -51 c42 -21 60
-53 60 -109 0 -30 -7 -50 -25 -71 -33 -39 -32 -52 4 -52 30 0 35 4 107 102 26
36 43 49 69 54 97 18 165 -34 185 -141 22 -117 -3 -205 -73 -256 -47 -34 -74
-36 -120 -9 -44 26 -76 100 -57 130 8 12 13 11 33 -8 38 -36 95 -30 137 13 29
30 34 43 38 92 3 48 0 63 -18 86 -40 51 -89 32 -136 -52 -13 -22 -36 -41 -72
-58 -39 -18 -52 -29 -48 -40 42 -109 -17 -229 -118 -240 -25 -3 -66 0 -91 7
-84 24 -175 153 -175 250 0 45 18 34 44 -27 26 -63 51 -91 93 -109 88 -38 183
1 183 74 0 47 -24 72 -70 72 -42 0 -67 22 -70 60 -4 45 -1 49 50 56 57 8 73
21 68 61 -3 26 -6 28 -56 31 -35 2 -59 -2 -74 -12 -39 -27 -66 -20 -83 21 -14
33 -14 38 1 54 34 38 157 50 214 21z"/>
<path d="M12504 6836 c-91 -34 -124 -56 -170 -116 -112 -146 -94 -387 38 -506
58 -53 204 -103 264 -91 16 3 49 10 74 15 84 16 158 80 194 167 31 74 15 105
-58 105 -52 0 -64 -8 -85 -55 -19 -43 -67 -87 -109 -100 -13 -4 -44 -4 -69 0
-58 8 -132 78 -150 142 -30 101 -10 205 52 268 84 86 164 83 259 -11 56 -54
57 -55 109 -52 46 3 52 6 55 26 5 32 -24 101 -56 135 -33 35 -70 56 -142 79
-73 23 -132 22 -206 -6z"/>
<path d="M5811 6826 c-12 -15 -45 -95 -62 -153 -5 -18 -14 -35 -19 -38 -6 -4
-10 -14 -10 -24 0 -18 -46 -134 -76 -194 -8 -16 -14 -37 -14 -47 0 -10 -4 -21
-10 -25 -5 -3 -14 -20 -19 -38 -5 -18 -19 -57 -30 -87 -31 -81 -31 -80 54 -80
80 0 95 10 95 62 0 13 5 29 11 35 6 6 17 22 23 35 11 22 17 23 137 26 146 3
142 5 175 -92 l21 -61 81 -3 c95 -3 96 -2 58 80 -13 29 -32 73 -41 98 -9 25
-21 53 -27 64 -5 10 -20 51 -34 92 -13 41 -28 82 -33 91 -5 10 -17 38 -26 63
-9 25 -21 53 -26 62 -4 9 -17 43 -29 74 -11 32 -25 61 -32 66 -23 14 -154 9
-167 -6z m115 -219 c7 -32 23 -74 52 -134 22 -48 5 -63 -73 -63 -35 0 -70 3
-79 6 -20 8 -21 44 -1 70 8 10 15 26 15 35 0 9 7 30 15 45 8 16 15 36 15 45 0
21 20 39 36 32 7 -2 16 -19 20 -36z"/>
<path d="M6472 6828 c-9 -9 -12 -98 -12 -338 0 -240 3 -329 12 -338 7 -7 38
-12 70 -12 46 0 59 4 68 19 6 12 10 98 10 210 0 105 4 192 9 196 5 3 24 -18
43 -47 48 -76 192 -297 222 -341 l26 -38 73 3 72 3 3 339 c2 265 -1 341 -10
348 -20 12 -113 9 -126 -4 -9 -9 -12 -69 -12 -209 0 -109 -4 -200 -9 -203 -9
-6 -25 16 -177 249 -53 83 -104 156 -112 163 -20 16 -134 16 -150 0z"/>
<path d="M7312 6828 c-13 -13 -16 -75 -6 -102 5 -13 23 -16 93 -16 47 0 93 -5
101 -10 13 -8 16 -54 20 -282 l5 -273 75 0 75 0 3 269 c1 178 6 274 13 283 8
9 38 13 100 13 77 0 90 2 99 19 17 33 12 89 -9 101 -29 15 -553 14 -569 -2z"/>
<path d="M8125 6827 c-3 -6 -4 -163 -3 -347 l3 -335 63 -3 c38 -2 69 2 78 9
19 16 21 658 2 677 -16 16 -137 16 -143 -1z"/>
<path d="M8567 6825 c-15 -15 -17 -52 -17 -339 0 -266 2 -326 14 -335 9 -7 41
-11 83 -9 l68 3 3 115 c2 94 6 117 19 128 11 8 55 12 131 12 103 0 117 2 156
25 54 32 68 49 89 105 22 60 21 118 -2 173 -22 51 -50 80 -106 110 -36 19 -59
22 -231 25 -168 3 -193 2 -207 -13z m330 -114 c52 -14 73 -43 73 -99 0 -35 -6
-49 -30 -73 -29 -29 -31 -30 -122 -27 l-93 3 0 100 c0 95 1 99 23 105 36 8
103 4 149 -9z"/>
<path d="M9380 6825 c-9 -10 -11 -80 -8 -267 3 -247 4 -254 27 -293 35 -58 72
-95 95 -95 10 0 27 -6 35 -14 24 -22 146 -33 221 -20 77 13 119 33 161 77 58
61 63 88 67 347 1 129 0 245 -3 258 -5 20 -11 22 -68 22 -36 0 -68 -5 -75 -12
-9 -9 -12 -76 -12 -239 0 -137 -4 -239 -11 -256 -19 -51 -56 -72 -129 -73 -68
0 -96 12 -132 55 -15 18 -17 48 -18 261 0 173 -3 243 -12 252 -17 17 -123 15
-138 -3z"/>
<path d="M10272 6832 c-9 -6 -12 -83 -10 -348 l3 -339 200 -3 c188 -2 204 -1
259 21 99 38 142 114 126 220 -5 34 -17 56 -48 88 -46 48 -50 60 -26 80 28 23
44 67 44 120 0 69 -29 115 -89 143 -41 19 -67 21 -246 24 -110 1 -206 -1 -213
-6z m323 -118 c67 -10 95 -76 54 -128 -21 -26 -23 -27 -127 -24 l-107 3 -3 65
c-5 99 19 110 183 84z m81 -297 c36 -42 33 -90 -8 -128 -32 -28 -35 -29 -140
-29 -60 0 -109 3 -109 8 -7 32 -4 151 3 165 9 17 21 18 120 15 106 -3 111 -4
134 -31z"/>
<path d="M11118 6827 c-10 -11 -12 -79 -8 -348 l5 -334 250 0 250 0 3 51 c2
34 -2 55 -11 62 -8 7 -73 12 -173 14 l-159 3 -3 269 c-1 178 -6 274 -13 283
-15 17 -123 18 -141 0z"/>
<path d="M11862 6832 c-9 -7 -12 -84 -13 -340 0 -183 3 -337 6 -342 8 -13 142
-13 150 0 4 6 6 160 5 342 0 248 -4 334 -13 340 -16 10 -119 10 -135 0z"/>
<path d="M5630 5423 c0 -5 -1 -147 -1 -317 -1 -322 0 -330 42 -319 17 5 19 20
21 247 2 153 7 241 13 240 6 0 11 -9 13 -20 2 -10 9 -35 17 -54 14 -38 30 -95
65 -238 42 -171 54 -192 100 -169 17 8 27 24 31 47 3 19 11 45 17 57 7 12 12
32 12 45 0 13 4 28 8 34 5 5 14 36 21 69 10 49 28 116 67 243 2 7 8 10 14 7 6
-4 10 -99 10 -255 0 -203 3 -249 14 -253 8 -3 21 0 30 6 15 11 16 46 14 322
l-3 310 -50 0 c-55 0 -64 -10 -83 -90 -6 -22 -15 -60 -21 -85 -7 -25 -26 -101
-42 -170 -36 -147 -46 -173 -59 -165 -10 6 -27 62 -41 130 -4 22 -15 65 -24
95 -9 30 -23 87 -31 125 -8 39 -22 91 -30 118 l-16 47 -54 0 c-30 0 -54 -3
-54 -7z"/>
<path d="M6887 5423 c-4 -3 -7 -44 -7 -91 l0 -84 -27 7 c-16 4 -51 9 -78 12
-64 6 -92 -14 -129 -92 -22 -48 -26 -69 -26 -151 0 -81 4 -103 26 -149 14 -30
38 -64 54 -75 37 -27 103 -27 137 0 23 18 28 19 43 5 9 -8 26 -15 38 -15 21 0
22 5 23 98 3 186 -2 525 -7 533 -6 11 -38 12 -47 2z m-59 -228 c39 -33 55 -94
50 -192 -5 -95 -27 -147 -69 -162 -32 -11 -68 -2 -85 20 -65 86 -52 291 22
340 38 25 47 24 82 -6z"/>
<path d="M7060 5415 c-20 -24 3 -65 35 -65 18 0 26 7 31 25 11 45 -37 74 -66
40z"/>
<path d="M8862 5418 c-9 -9 -12 -91 -12 -309 0 -257 2 -300 16 -313 12 -12 20
-13 35 -6 18 10 19 23 19 176 0 170 4 192 43 227 24 21 76 22 103 3 17 -13 19
-31 24 -208 l5 -193 25 0 25 0 3 208 2 207 -30 30 c-25 25 -39 30 -78 30 -27
0 -57 -7 -70 -16 -42 -29 -52 -13 -52 80 0 67 -3 85 -16 90 -22 8 -28 8 -42
-6z"/>
<path d="M9961 5416 c-16 -19 -7 -62 15 -70 25 -10 45 13 42 48 -3 35 -36 48
-57 22z"/>
<path d="M11097 5424 c-4 -4 -7 -44 -7 -89 0 -45 -3 -85 -6 -88 -4 -3 -16 0
-28 8 -11 9 -43 15 -72 15 -45 0 -55 -4 -87 -35 -20 -20 -39 -48 -42 -63 -3
-15 -11 -43 -17 -63 -19 -66 2 -226 36 -272 40 -55 126 -75 175 -41 19 14 27
14 46 4 13 -7 31 -10 39 -7 15 6 16 42 14 319 -3 306 -3 313 -23 316 -12 2
-24 0 -28 -4z m-32 -251 c23 -34 25 -47 25 -140 0 -109 -7 -140 -40 -173 -24
-24 -82 -27 -104 -4 -33 32 -39 60 -39 164 0 88 4 112 22 148 20 40 24 42 66
42 40 0 47 -4 70 -37z"/>
<path d="M12523 5419 c-7 -7 -9 -31 -6 -64 7 -69 -2 -105 -27 -105 -10 0 -22
5 -25 10 -3 6 -29 10 -57 10 -106 0 -148 -69 -148 -245 0 -120 16 -180 60
-220 28 -26 121 -33 142 -11 20 19 41 20 68 4 42 -26 45 -6 48 309 2 296 0
323 -32 323 -7 0 -17 -5 -23 -11z m-49 -228 c56 -62 52 -295 -7 -336 -22 -15
-63 -20 -91 -9 -9 3 -25 26 -36 51 -37 85 -23 239 28 296 21 24 84 23 106 -2z"/>
<path d="M14383 5423 c-22 -8 -16 -61 7 -68 39 -12 66 35 38 63 -13 13 -24 14
-45 5z"/>
<path d="M14802 5418 c-7 -7 -12 -43 -12 -90 0 -71 -2 -78 -19 -78 -11 0 -23
5 -26 10 -10 16 -108 12 -132 -5 -11 -8 -33 -36 -48 -62 -26 -44 -28 -54 -28
-167 0 -134 15 -183 69 -225 33 -26 114 -29 138 -6 16 17 56 20 56 5 0 -13 37
-13 44 -1 8 13 9 608 1 621 -8 13 -28 13 -43 -2z m-57 -224 c36 -39 48 -96 43
-200 -6 -108 -26 -148 -80 -157 -42 -6 -61 4 -87 47 -18 28 -21 49 -21 140 0
93 3 110 23 141 38 59 84 70 122 29z"/>
<path d="M15597 5424 c-4 -4 -7 -39 -7 -78 0 -84 -8 -103 -38 -87 -11 6 -43
11 -71 11 -92 0 -138 -66 -148 -214 -8 -116 9 -187 56 -236 33 -34 44 -40 80
-40 24 0 59 7 78 17 27 13 37 13 43 4 4 -7 18 -11 31 -9 l24 3 0 315 c0 309 0
315 -20 318 -12 2 -24 0 -28 -4z m-44 -244 c57 -68 44 -310 -18 -334 -21 -8
-59 -8 -80 0 -62 24 -76 266 -18 334 34 41 82 41 116 0z"/>
<path d="M15981 5416 c-9 -11 -12 -81 -10 -268 0 -139 4 -277 7 -305 4 -48 7
-53 29 -53 13 0 26 7 29 15 8 21 26 19 47 -5 12 -14 29 -20 61 -20 50 0 83 21
118 78 21 34 23 48 23 167 0 118 -2 134 -24 173 -13 23 -33 49 -44 57 -30 21
-115 20 -139 -2 -28 -25 -37 -7 -40 87 -3 77 -5 85 -24 88 -11 2 -26 -4 -33
-12z m173 -206 c38 -14 57 -52 67 -131 18 -144 -18 -239 -90 -239 -64 0 -91
53 -91 181 0 108 14 157 54 184 24 18 27 18 60 5z"/>
<path d="M8653 5393 c-8 -3 -13 -25 -13 -59 0 -54 -1 -55 -36 -70 -40 -17 -44
-47 -6 -52 37 -6 43 -33 41 -207 -2 -187 5 -209 65 -220 51 -10 71 -3 71 24 0
19 -7 26 -29 32 -16 5 -33 14 -37 21 -5 7 -9 81 -9 163 0 83 4 156 9 163 4 7
21 16 37 21 42 11 38 40 -6 55 -34 11 -35 13 -38 66 -4 61 -16 77 -49 63z"/>
<path d="M6317 5252 c-49 -30 -72 -93 -75 -211 -4 -119 8 -174 47 -222 25 -30
34 -33 93 -37 61 -4 67 -2 101 27 58 52 75 137 25 129 -14 -2 -25 -14 -33 -37
-35 -106 -140 -90 -163 25 -18 88 -13 93 116 96 l107 3 3 63 c4 76 -22 138
-67 165 -38 22 -117 22 -154 -1z m121 -57 c29 -24 45 -74 35 -102 -7 -18 -149
-18 -160 -1 -21 35 8 101 52 119 32 13 42 11 73 -16z"/>
<path d="M7283 5249 c-46 -29 -59 -119 -18 -119 8 0 20 10 26 23 20 39 52 67
76 67 34 0 73 -43 73 -80 0 -34 -40 -80 -70 -80 -33 0 -109 -40 -128 -68 -29
-40 -34 -65 -23 -113 14 -61 57 -99 115 -99 29 0 51 7 66 20 24 21 60 27 60
10 0 -14 40 -28 62 -22 22 5 23 30 3 56 -12 16 -15 54 -15 172 0 218 -19 254
-135 254 -43 0 -69 -6 -92 -21z m155 -259 c6 -65 -7 -119 -34 -137 -82 -54
-163 35 -102 112 22 28 92 65 118 62 9 -1 16 -15 18 -37z"/>
<path d="M7862 5245 c-16 -14 -33 -37 -36 -51 -17 -65 33 -90 58 -30 24 58 73
72 120 35 23 -18 27 -28 24 -61 -3 -33 -8 -42 -38 -58 -19 -10 -47 -21 -61
-24 -43 -9 -93 -50 -113 -91 -16 -35 -17 -45 -5 -93 8 -34 21 -60 37 -73 34
-26 106 -25 157 2 34 19 40 19 50 6 11 -15 26 -20 58 -18 23 1 22 22 -3 54
-18 23 -20 40 -20 194 0 120 -4 174 -12 185 -29 35 -63 48 -124 48 -52 0 -67
-4 -92 -25z m168 -283 c0 -58 -3 -71 -25 -94 -46 -50 -105 -45 -126 9 -21 55
6 100 79 134 67 31 72 28 72 -49z"/>
<path d="M8222 5258 c-9 -9 -12 -70 -12 -211 l0 -199 34 -34 c28 -28 42 -34
76 -34 42 0 73 12 99 38 13 12 17 11 31 -8 10 -13 25 -21 36 -18 18 3 19 16
22 230 2 211 1 228 -16 237 -10 5 -23 7 -29 3 -6 -4 -12 -72 -15 -172 -6 -213
-23 -250 -111 -250 -58 0 -62 12 -65 224 -3 180 -7 205 -32 206 -4 0 -11 -5
-18 -12z"/>
<path d="M9330 5241 c-50 -41 -75 -115 -74 -216 1 -108 17 -161 65 -208 l39
-39 71 4 c67 4 73 6 99 38 42 52 60 114 60 211 0 75 -4 93 -30 145 -36 72 -68
94 -142 94 -44 0 -59 -5 -88 -29z m147 -46 c57 -40 67 -254 15 -324 -45 -61
-119 -47 -152 27 -23 52 -28 193 -8 239 30 70 92 95 145 58z"/>
<path d="M9700 5250 c-19 -19 -20 -33 -20 -214 0 -212 7 -249 43 -244 22 3 22
6 27 170 4 148 7 170 26 194 22 30 33 37 79 51 23 6 30 14 30 33 0 22 -4 25
-38 24 -27 -1 -47 -9 -66 -28 l-29 -27 -10 30 c-13 37 -16 37 -42 11z"/>
<path d="M9966 5254 c-14 -13 -16 -48 -16 -227 0 -117 4 -218 9 -225 4 -8 19
-12 32 -10 l24 3 3 224 c2 216 -2 251 -29 251 -4 0 -15 -7 -23 -16z"/>
<path d="M10123 5263 c-18 -7 -16 -42 2 -49 8 -4 50 -7 92 -8 62 -1 78 -4 81
-17 1 -8 -43 -91 -98 -182 -106 -175 -116 -206 -70 -217 38 -9 263 4 267 15 8
26 -16 35 -107 37 -77 2 -95 6 -98 19 -1 8 35 77 80 153 106 175 117 196 118
222 0 12 -7 25 -16 28 -19 7 -233 7 -251 -1z"/>
<path d="M10526 5249 c-45 -36 -68 -94 -74 -189 -7 -122 10 -191 58 -242 l39
-40 67 4 c73 5 88 16 124 92 22 47 16 68 -18 64 -20 -2 -28 -12 -39 -44 -38
-115 -168 -57 -161 71 l3 50 107 3 c121 3 126 6 123 77 -2 64 -33 132 -70 155
-45 28 -123 27 -159 -1z m128 -52 c28 -28 44 -96 24 -108 -7 -5 -46 -9 -85 -9
l-73 0 0 33 c0 33 20 71 48 95 24 19 61 14 86 -11z"/>
<path d="M11517 5252 c-28 -17 -53 -81 -43 -108 10 -25 36 -15 57 21 23 39 46
55 78 55 60 0 85 -100 35 -139 -15 -12 -36 -21 -48 -22 -40 -1 -108 -43 -127
-79 -34 -63 -19 -148 33 -184 28 -20 95 -20 128 -1 47 27 53 28 64 13 17 -23
50 -30 72 -14 19 14 19 15 -3 38 -22 23 -23 32 -23 187 0 166 -4 185 -43 229
-17 19 -31 22 -86 22 -45 0 -75 -6 -94 -18z m151 -277 c6 -86 -4 -113 -46
-130 -46 -20 -85 -6 -103 37 -18 44 6 87 67 120 68 37 78 33 82 -27z"/>
<path d="M11963 5255 c-17 -12 -27 -13 -47 -4 -55 26 -57 21 -54 -228 l3 -228
25 0 25 0 5 186 c5 184 5 187 30 208 33 27 93 28 120 1 18 -18 20 -33 20 -187
0 -201 3 -215 39 -211 l26 3 3 180 c3 198 -4 242 -45 274 -32 26 -117 29 -150
6z"/>
<path d="M12908 5259 c-17 -9 -18 -35 -18 -309 0 -164 3 -305 6 -314 7 -19 35
-21 52 -4 7 7 12 44 12 96 0 82 0 83 23 77 12 -4 26 -11 32 -16 13 -13 86 -10
112 4 84 47 119 223 72 363 -12 34 -32 73 -45 85 -31 29 -109 37 -152 15 -28
-15 -35 -15 -54 -2 -16 11 -28 12 -40 5z m199 -71 c46 -53 60 -226 23 -297
-36 -71 -100 -72 -147 -2 -20 29 -23 47 -23 121 0 134 31 200 95 200 20 0 39
-8 52 -22z"/>
<path d="M13417 5244 c-28 -26 -47 -25 -47 2 0 11 -8 14 -27 12 l-28 -3 -3
-210 c-1 -115 0 -220 3 -232 6 -27 49 -32 59 -7 3 9 6 80 6 159 0 147 7 183
42 218 9 9 27 17 38 17 32 0 60 18 60 39 0 39 -64 42 -103 5z"/>
<path d="M13630 5232 c-21 -20 -43 -55 -50 -77 -19 -65 -24 -172 -10 -218 37
-125 71 -157 163 -157 53 0 61 3 100 39 36 33 45 50 55 98 31 154 -2 294 -80
334 -22 11 -58 19 -89 19 -46 0 -55 -4 -89 -38z m158 -43 c24 -25 32 -44 38
-87 9 -75 -1 -198 -20 -226 -23 -36 -69 -51 -106 -36 -52 22 -65 59 -65 190 0
106 2 118 23 145 42 54 86 59 130 14z"/>
<path d="M13971 5261 c-14 -9 -8 -79 12 -116 5 -11 13 -33 18 -50 40 -165 83
-287 105 -306 24 -20 61 14 69 63 4 24 12 52 18 63 10 20 13 27 46 155 10 41
26 97 36 123 17 51 15 77 -8 77 -22 0 -49 -36 -58 -77 -4 -21 -13 -58 -20 -83
-7 -25 -21 -80 -32 -122 -10 -43 -23 -78 -28 -78 -12 0 -28 34 -38 82 -8 38
-14 58 -39 128 -3 8 -11 39 -16 69 -12 57 -39 88 -65 72z"/>
<path d="M14386 5254 c-14 -14 -16 -46 -14 -237 l3 -222 24 -3 c13 -2 28 2 32
10 5 7 9 111 9 230 0 205 -1 218 -19 228 -15 7 -23 6 -35 -6z"/>
<path d="M15027 5250 c-14 -11 -36 -37 -49 -58 -21 -34 -23 -48 -23 -167 0
-144 8 -171 65 -219 26 -21 42 -26 85 -26 46 0 60 5 88 30 22 19 38 45 45 72
12 48 9 58 -19 58 -14 0 -26 -13 -40 -45 -32 -73 -82 -86 -130 -33 -27 28 -30
36 -27 92 l3 61 107 3 c146 4 142 -5 97 174 -13 49 -59 78 -126 78 -35 0 -58
-6 -76 -20z m120 -47 c24 -22 49 -101 35 -115 -5 -5 -42 -8 -83 -6 l-74 3 -3
38 c-6 70 77 123 125 80z"/>
<path d="M16631 5244 c-12 -15 -21 -38 -21 -53 0 -14 -7 -35 -15 -45 -8 -11
-15 -28 -15 -39 0 -10 -12 -57 -26 -103 -26 -88 -48 -108 -60 -56 -3 15 -12
48 -20 75 -8 26 -20 68 -28 95 -8 26 -17 62 -20 81 -8 44 -23 61 -53 61 -22 0
-24 -3 -19 -22 4 -13 10 -41 13 -63 3 -22 9 -44 13 -50 7 -9 19 -47 76 -242 9
-29 20 -55 25 -59 31 -19 -17 -131 -60 -140 -48 -10 -52 -14 -49 -36 5 -35 51
-47 86 -22 28 22 86 127 95 172 3 15 10 41 15 57 25 69 72 232 72 249 0 10 6
30 14 44 21 42 38 101 31 112 -11 17 -33 11 -54 -16z"/>
<path d="M7066 5243 c-3 -10 -3 -115 -2 -233 4 -214 4 -215 26 -218 13 -2 27
2 31 10 10 15 12 401 3 436 -8 27 -50 31 -58 5z"/>
<path d="M11922 4628 c-9 -9 -12 -91 -12 -308 0 -279 1 -298 19 -314 12 -11
21 -14 26 -7 8 14 58 14 72 0 29 -29 144 1 163 41 4 8 14 30 23 48 26 52 24
250 -3 300 -31 58 -43 69 -88 83 -34 10 -49 10 -81 -1 -21 -7 -44 -9 -50 -6
-6 4 -11 39 -11 86 0 62 -3 79 -16 84 -22 8 -28 8 -42 -6z m187 -214 c42 -25
61 -81 61 -178 0 -149 -52 -219 -133 -180 -20 10 -39 25 -41 33 -20 76 -27
130 -23 174 12 102 21 126 52 146 38 24 50 25 84 5z"/>
<path d="M12534 4632 c-32 -22 -18 -85 18 -80 18 2 24 11 26 37 4 40 -17 61
-44 43z"/>
<path d="M10904 4616 c-16 -42 24 -83 52 -54 25 25 11 68 -22 68 -13 0 -27 -6
-30 -14z"/>
<path d="M12336 4614 c-3 -9 -6 -143 -6 -298 0 -230 3 -286 14 -302 12 -15 18
-17 33 -8 17 10 18 33 21 285 3 316 1 339 -32 339 -13 0 -27 -7 -30 -16z"/>
<path d="M10692 4597 c-6 -7 -12 -35 -14 -62 -2 -40 -7 -52 -26 -61 -44 -22
-45 -30 -8 -52 l36 -21 0 -176 0 -177 29 -29 c34 -33 90 -40 112 -13 16 19 1
47 -27 53 -42 7 -44 18 -44 180 0 167 4 181 48 181 34 0 27 44 -8 49 -33 4
-40 17 -40 77 0 38 -4 53 -16 58 -23 9 -30 8 -42 -7z"/>
<path d="M9947 4472 c-56 -18 -93 -66 -83 -107 9 -35 43 -33 57 2 24 62 62 78
119 48 26 -14 30 -21 30 -59 0 -45 -21 -76 -52 -76 -9 0 -31 -8 -50 -17 -18
-9 -44 -22 -58 -29 -40 -19 -62 -70 -57 -133 3 -46 9 -59 35 -82 48 -43 74
-45 137 -15 l54 27 30 -22 c30 -22 31 -22 51 -4 l20 18 -21 23 c-20 21 -22 34
-23 193 -1 169 -1 171 -27 196 -14 14 -45 32 -70 39 -38 12 -51 11 -92 -2z
m123 -301 c0 -58 -4 -74 -22 -95 -33 -36 -68 -42 -101 -16 -23 18 -27 29 -27
71 l0 49 63 29 c34 17 68 30 75 31 8 0 12 -20 12 -69z"/>
<path d="M12780 4467 c-36 -17 -51 -33 -72 -76 -25 -49 -28 -65 -28 -160 0
-124 17 -172 73 -215 50 -38 93 -43 146 -15 52 27 81 70 81 122 0 36 -2 38
-27 35 -21 -2 -29 -10 -33 -33 -19 -91 -85 -114 -138 -49 -26 31 -31 47 -37
119 -9 116 13 195 61 221 31 17 37 17 62 4 15 -9 35 -32 46 -53 14 -29 23 -37
40 -35 29 4 32 37 5 82 -39 66 -110 87 -179 53z"/>
<path d="M10366 4460 c-28 -14 -43 -17 -52 -9 -7 6 -23 9 -36 7 -26 -3 -24 16
-20 -306 2 -131 4 -154 18 -159 36 -14 44 23 44 196 0 180 3 188 62 226 30 19
54 15 86 -16 21 -19 22 -28 22 -205 0 -162 2 -185 16 -191 9 -3 24 -2 33 4 14
9 16 37 16 204 0 178 -2 196 -20 221 -37 50 -103 61 -169 28z"/>
<path d="M11192 4466 c-24 -11 -39 -13 -59 -5 -14 5 -30 6 -35 1 -4 -4 -7
-145 -6 -313 3 -288 4 -304 22 -307 28 -6 36 15 36 101 0 82 4 88 45 61 53
-35 137 -11 173 48 67 113 47 351 -34 405 -34 22 -103 26 -142 9z m97 -62 c38
-32 51 -78 50 -174 -1 -105 -16 -147 -61 -173 -32 -19 -39 -20 -62 -7 -52 28
-66 66 -66 186 0 114 9 144 56 179 28 21 49 18 83 -11z"/>
<path d="M13363 4466 c-17 -8 -44 -34 -60 -57 -27 -41 -28 -47 -28 -174 0
-127 1 -133 27 -173 65 -98 200 -104 262 -11 74 109 53 338 -36 403 -35 25
-122 31 -165 12z m127 -57 c36 -27 56 -119 46 -220 -8 -86 -20 -113 -62 -135
-41 -22 -77 -12 -108 29 -18 24 -22 46 -24 140 -4 124 6 159 56 190 36 22 57
21 92 -4z"/>
<path d="M13834 4461 c-18 -11 -35 -24 -38 -30 -12 -18 -26 -12 -36 14 -5 14
-15 25 -23 25 -34 0 -37 -22 -37 -235 0 -199 1 -213 20 -230 16 -14 23 -15 34
-6 12 10 15 48 18 176 3 187 12 211 83 231 47 13 65 35 46 58 -17 21 -29 20
-67 -3z"/>
<path d="M14038 4464 c-15 -8 -36 -27 -46 -42 -41 -57 -54 -210 -27 -312 27
-103 114 -148 193 -100 18 11 37 18 43 15 19 -12 8 -58 -22 -96 -27 -34 -36
-39 -73 -39 -35 0 -46 5 -64 30 -28 38 -72 42 -72 8 1 -52 66 -93 145 -91 69
2 109 25 135 80 18 39 20 63 20 292 0 165 -4 252 -11 256 -5 4 -23 2 -39 -5
-23 -9 -34 -9 -58 4 -37 19 -87 19 -124 0z m108 -51 c46 -29 64 -82 64 -182 0
-108 -16 -151 -67 -175 -33 -16 -36 -16 -69 4 -41 26 -54 66 -54 165 1 94 13
141 46 176 32 33 45 35 80 12z"/>
<path d="M7993 4454 c-3 -8 2 -43 11 -77 9 -34 21 -80 26 -102 46 -207 66
-264 97 -271 13 -4 29 -2 34 3 9 9 32 109 49 211 14 88 60 134 60 61 0 -27 25
-145 50 -240 6 -21 16 -39 24 -42 23 -9 52 19 65 65 6 24 19 64 26 89 8 26 15
54 15 63 0 8 14 66 30 127 24 89 28 114 18 121 -21 13 -37 9 -48 -12 -11 -21
-44 -163 -61 -265 -6 -33 -12 -61 -14 -64 -3 -2 -13 7 -23 20 -12 14 -22 46
-25 86 -4 35 -11 72 -17 82 -5 11 -10 35 -10 54 0 107 -75 148 -99 54 -5 -24
-17 -83 -26 -132 -26 -153 -30 -168 -40 -169 -5 -1 -13 15 -16 34 -4 19 -14
67 -23 105 -9 39 -21 92 -26 119 -12 58 -34 96 -56 96 -8 0 -17 -7 -21 -16z"/>
<path d="M8555 4456 c-19 -14 -19 -15 -2 -50 9 -20 17 -48 17 -62 0 -14 5 -35
12 -47 6 -12 15 -40 19 -62 18 -97 42 -192 55 -217 33 -63 77 -17 94 97 4 28
12 70 19 95 6 25 13 58 16 73 7 33 27 31 37 -4 7 -23 40 -172 53 -237 11 -54
85 -54 85 0 0 11 5 29 12 41 6 12 15 38 19 57 25 114 51 221 65 264 14 41 14
50 3 57 -19 12 -22 11 -44 -5 -11 -8 -21 -33 -26 -62 -10 -64 -44 -223 -53
-252 -18 -55 -43 14 -62 168 -7 63 -37 152 -52 158 -28 10 -59 -16 -66 -55
-25 -157 -52 -283 -59 -283 -13 0 -37 66 -37 100 0 17 -7 47 -15 67 -8 19 -15
45 -15 57 0 22 -19 82 -33 104 -10 16 -19 15 -42 -2z"/>
<path d="M9117 4463 c-11 -10 -8 -41 8 -92 7 -25 18 -64 24 -86 30 -126 43
-185 50 -223 7 -36 31 -71 52 -72 15 -1 38 28 43 55 3 17 10 57 16 90 15 75
40 167 50 178 11 12 20 -6 30 -61 4 -26 13 -73 19 -106 6 -32 15 -63 20 -70 5
-6 11 -24 13 -40 7 -64 88 -42 88 25 0 16 9 58 19 92 10 34 24 89 30 122 7 33
17 74 23 90 17 48 21 92 9 99 -17 11 -51 -4 -51 -22 0 -9 -6 -34 -14 -57 -8
-22 -19 -71 -26 -110 -17 -99 -29 -145 -40 -145 -12 0 -28 52 -40 130 -5 36
-14 83 -20 105 -5 22 -12 52 -15 67 -6 33 -49 49 -69 27 -7 -8 -25 -76 -39
-153 -27 -134 -42 -184 -54 -172 -5 5 -17 55 -42 181 -5 22 -13 53 -20 68 -6
16 -11 39 -11 52 0 27 -35 46 -53 28z"/>
<path d="M10910 4451 c-6 -12 -10 -100 -10 -216 0 -116 4 -204 10 -216 13 -23
46 -25 54 -3 3 9 6 112 6 229 0 185 -2 214 -16 219 -25 10 -33 7 -44 -13z"/>
<path d="M11517 4463 c-4 -3 -7 -97 -7 -209 l0 -202 34 -30 c49 -43 81 -47
141 -18 49 25 50 25 65 5 14 -18 17 -18 38 -3 22 15 22 17 20 231 -3 189 -5
217 -20 226 -12 8 -21 7 -32 -2 -13 -11 -16 -40 -16 -173 0 -179 -7 -205 -64
-232 -45 -21 -58 -20 -84 7 -21 22 -22 32 -22 203 0 127 -4 184 -12 192 -13
13 -31 16 -41 5z"/>
<path d="M12533 4463 c-10 -3 -13 -59 -13 -228 0 -233 4 -254 44 -239 14 5 16
30 16 194 0 103 3 201 6 217 4 21 1 35 -11 46 -17 18 -22 19 -42 10z"/>
<path d="M9693 4083 c-21 -8 -16 -71 5 -82 13 -7 23 -6 30 1 16 16 15 61 0 76
-13 13 -16 13 -35 5z"/>
<path d="M13097 4074 c-12 -13 -8 -61 7 -73 26 -21 58 4 54 42 -2 26 -8 33
-28 35 -14 2 -29 0 -33 -4z"/>
<path d="M3240 3321 c-144 -46 -218 -217 -207 -476 7 -156 13 -188 47 -260 63
-136 160 -186 289 -150 50 15 68 26 95 59 41 51 66 98 66 126 0 12 6 34 14 48
24 46 34 206 20 326 -6 59 -17 113 -23 119 -6 6 -11 19 -11 29 0 44 -67 135
-120 163 -32 16 -137 26 -170 16z m140 -116 c44 -28 79 -86 92 -152 4 -24 12
-63 16 -88 13 -66 -8 -263 -34 -325 -24 -57 -29 -64 -70 -92 -92 -64 -197 -13
-250 122 -14 34 -19 82 -21 195 -4 158 -5 153 50 273 39 87 138 117 217 67z"/>
<path d="M5386 3323 c-36 -9 -74 -39 -107 -83 -58 -77 -68 -110 -91 -309 -11
-92 -8 -134 20 -271 35 -171 158 -266 294 -226 75 22 120 71 151 166 38 116
40 138 15 151 -29 16 -68 -3 -68 -34 0 -29 -30 -115 -50 -143 -51 -72 -163
-69 -218 5 -48 66 -56 105 -57 281 0 198 11 249 74 321 39 46 45 49 89 49 82
0 125 -42 165 -162 6 -18 32 -23 61 -12 22 8 20 36 -6 108 -28 78 -98 150
-155 159 -42 7 -88 7 -117 0z"/>
<path d="M6717 3320 c-68 -21 -142 -106 -166 -190 -43 -155 -56 -253 -42 -323
7 -34 17 -84 21 -112 26 -171 112 -266 239 -268 62 0 108 19 139 58 25 32 40
32 48 0 6 -26 36 -49 48 -38 3 3 6 83 6 177 1 94 5 190 9 213 6 31 5 46 -4 53
-8 7 -56 10 -121 8 l-109 -3 -3 -37 c-4 -43 3 -46 103 -50 l60 -3 3 -49 c2
-29 -3 -61 -12 -81 -9 -18 -16 -40 -16 -48 0 -21 -47 -75 -81 -92 -15 -8 -47
-15 -71 -15 -71 1 -124 58 -162 176 -18 58 -23 257 -6 308 5 17 17 56 25 86
35 120 137 175 226 121 34 -21 69 -71 69 -99 0 -33 30 -63 58 -60 36 4 39 33
12 105 -27 72 -53 108 -99 138 -42 26 -130 39 -174 25z"/>
<path d="M8085 3322 c-58 -20 -85 -44 -114 -103 -27 -55 -31 -72 -31 -146 0
-88 17 -139 57 -175 10 -9 66 -36 123 -58 60 -23 115 -52 127 -66 56 -62 50
-168 -14 -224 -28 -25 -42 -30 -84 -30 -36 0 -60 6 -80 21 -34 24 -69 87 -69
123 0 44 -10 56 -46 56 -33 0 -34 -2 -34 -37 0 -77 41 -175 89 -216 51 -43
157 -53 236 -22 123 48 157 300 58 421 -21 26 -84 59 -131 69 -36 7 -114 49
-130 68 -36 44 -30 160 11 205 17 18 31 22 80 22 55 0 62 -3 93 -36 22 -23 36
-50 40 -75 8 -46 36 -68 60 -48 12 10 14 25 8 68 -14 114 -71 175 -174 185
-30 3 -64 2 -75 -2z"/>
<path d="M11762 3320 c-50 -12 -99 -65 -142 -155 -32 -66 -41 -98 -51 -186
-18 -157 7 -369 49 -411 7 -7 12 -16 12 -21 0 -6 16 -29 35 -52 34 -42 100
-75 149 -75 42 0 97 22 131 52 35 30 65 32 65 5 0 -8 7 -20 15 -27 12 -10 18
-10 30 0 13 11 15 46 13 229 l-3 216 -112 3 -113 3 0 -46 0 -45 70 0 c65 0 71
-2 81 -24 27 -58 -33 -219 -94 -253 -12 -7 -45 -12 -74 -13 -47 0 -56 4 -91
38 -63 60 -85 132 -90 286 -4 141 3 182 50 283 33 71 76 103 139 103 73 0 119
-41 148 -132 13 -41 43 -57 67 -37 29 24 2 124 -51 189 -51 62 -148 91 -233
70z"/>
<path d="M12870 3323 c-13 -3 -41 -18 -62 -34 -101 -81 -107 -324 -10 -396 27
-20 167 -83 187 -83 19 -1 64 -45 74 -73 23 -61 5 -145 -41 -194 -18 -19 -32
-23 -81 -23 -55 0 -62 3 -97 38 -28 28 -39 48 -44 85 -9 60 -37 92 -66 77 -16
-8 -20 -21 -20 -60 0 -83 56 -182 123 -217 70 -35 209 -12 260 45 30 33 57
122 57 187 0 69 -28 156 -62 192 -24 26 -83 56 -133 69 -62 15 -128 63 -145
104 -19 45 -5 114 32 155 26 30 36 35 75 35 78 0 122 -40 142 -130 8 -34 56
-41 66 -10 8 25 -3 98 -16 106 -5 3 -9 14 -9 24 0 10 -20 36 -45 58 -33 29
-57 41 -91 46 -49 6 -53 6 -94 -1z"/>
<path d="M2282 3308 c-16 -16 -15 -51 3 -95 8 -19 15 -48 15 -64 0 -15 4 -30
9 -33 4 -3 11 -26 14 -51 10 -72 37 -187 53 -223 8 -18 14 -44 14 -58 0 -14 6
-46 14 -72 8 -26 24 -91 37 -145 18 -79 27 -102 46 -114 32 -21 70 -4 78 34 3
15 10 42 16 58 6 17 15 52 20 79 4 27 19 95 33 150 36 150 47 198 52 231 3 17
11 53 19 80 30 105 45 172 45 198 0 32 -22 44 -54 29 -19 -8 -26 -27 -45 -123
-12 -63 -27 -130 -33 -149 -7 -19 -15 -55 -19 -80 -5 -25 -15 -74 -24 -110 -9
-36 -21 -99 -27 -140 -5 -41 -14 -84 -18 -95 -7 -17 -11 -14 -29 25 -11 25
-21 56 -21 69 0 14 -7 50 -15 80 -20 77 -50 211 -69 303 -9 42 -20 88 -26 103
-5 14 -10 39 -10 55 0 19 -9 36 -26 49 -31 24 -36 25 -52 9z"/>
<path d="M2851 3306 c-8 -9 -10 -131 -9 -431 l3 -418 28 -10 c58 -19 57 -25
57 432 0 311 -3 420 -12 429 -16 16 -53 15 -67 -2z"/>
<path d="M3683 3314 c-10 -5 -13 -100 -13 -429 0 -327 3 -425 13 -431 6 -5 86
-7 177 -4 l165 5 3 38 c2 26 -1 39 -12 43 -8 3 -69 6 -135 7 -66 1 -122 5
-126 9 -4 3 -6 163 -6 355 0 191 -3 362 -7 378 -8 29 -31 40 -59 29z"/>
<path d="M4658 3309 c-17 -9 -18 -40 -18 -428 0 -370 2 -420 16 -432 11 -9 20
-10 32 -2 15 9 17 44 20 322 2 282 4 312 19 309 9 -2 19 -10 23 -18 4 -8 14
-30 23 -48 9 -19 17 -40 17 -48 0 -8 14 -44 31 -81 52 -116 59 -133 59 -147 0
-8 11 -38 24 -67 13 -30 35 -88 50 -130 29 -83 48 -99 101 -89 l30 5 3 421 c2
458 3 452 -52 438 l-26 -6 0 -307 c0 -169 -3 -310 -6 -314 -10 -9 -34 4 -34
19 0 7 -6 28 -14 46 -8 18 -29 71 -46 118 -37 100 -91 231 -100 245 -4 6 -10
23 -14 39 -10 40 -64 149 -79 158 -16 10 -39 9 -59 -3z"/>
<path d="M7272 3312 l-112 -3 2 -432 c3 -424 3 -432 23 -435 11 -1 28 3 37 10
15 11 18 34 19 172 0 87 3 165 6 172 9 23 184 19 213 -4 34 -28 50 -87 50
-194 0 -137 18 -169 79 -146 18 6 22 13 17 31 -3 12 -11 85 -17 162 -10 119
-15 146 -35 177 -29 46 -29 47 -1 90 46 67 59 173 32 263 -16 52 -68 115 -95
115 -9 0 -20 4 -25 9 -15 13 -67 16 -193 13z m209 -131 c28 -28 29 -33 29
-119 0 -89 -1 -91 -31 -116 -30 -25 -36 -27 -133 -24 l-101 3 -3 129 c-2 86 1
133 9 142 8 10 37 14 106 14 91 0 96 -1 124 -29z"/>
<path d="M7748 3309 c-17 -9 -18 -41 -18 -430 l0 -420 22 -8 c31 -11 57 -2 64
23 3 12 4 202 2 424 -3 345 -5 404 -18 412 -19 12 -31 12 -52 -1z"/>
<path d="M8487 3313 c-4 -3 -7 -199 -7 -435 0 -335 3 -428 13 -429 6 0 79 0
162 0 131 -1 151 2 162 17 15 21 16 43 4 63 -7 11 -33 14 -114 12 -57 -1 -116
3 -131 9 l-26 10 0 374 c0 332 -2 375 -16 380 -20 8 -39 8 -47 -1z"/>
<path d="M9412 3311 c-15 -9 -8 -55 12 -81 7 -8 18 -33 25 -55 21 -62 79 -203
114 -275 32 -65 32 -65 35 -253 3 -177 5 -188 24 -198 15 -8 27 -8 44 0 24 11
24 11 24 180 0 186 -4 169 81 362 16 36 29 71 29 77 0 10 7 27 45 117 30 70
45 117 40 126 -8 11 -45 12 -63 0 -18 -11 -57 -97 -97 -211 -18 -52 -39 -112
-48 -132 -17 -40 -44 -50 -53 -20 -4 9 -25 67 -49 127 -24 61 -51 133 -60 160
-26 72 -65 101 -103 76z"/>
<path d="M10190 3300 c-7 -12 -9 -158 -8 -431 3 -380 4 -413 21 -423 12 -8 22
-8 35 0 16 10 17 43 20 423 1 273 -1 419 -8 431 -6 11 -19 20 -30 20 -11 0
-24 -9 -30 -20z"/>
<path d="M10408 3310 c-17 -10 -18 -42 -18 -428 0 -434 1 -442 42 -442 36 0
40 32 38 334 -3 319 -2 332 5 324 9 -9 36 -111 45 -168 5 -30 16 -82 24 -115
16 -59 52 -233 65 -310 8 -53 46 -77 83 -53 19 12 28 31 36 75 6 32 20 101 32
153 11 52 25 122 29 156 5 34 14 70 20 82 6 11 11 32 11 47 0 31 26 85 42 85
8 0 9 -80 4 -295 l-8 -295 26 -11 c20 -9 29 -9 41 1 13 11 15 67 15 430 0 334
-3 420 -13 429 -17 13 -85 11 -95 -3 -13 -18 -31 -85 -46 -176 -20 -117 -34
-177 -46 -199 -5 -11 -10 -31 -10 -45 0 -22 -13 -83 -42 -194 -10 -40 -24 -60
-34 -50 -4 5 -31 126 -43 198 -4 25 -13 55 -19 67 -7 12 -12 35 -12 50 0 16
-12 83 -26 148 -14 66 -30 137 -34 158 -4 21 -10 40 -13 43 -11 12 -83 14 -99
4z"/>
<path d="M11238 3313 c-11 -3 -22 -21 -28 -46 -6 -23 -15 -52 -20 -65 -6 -13
-10 -35 -10 -50 0 -15 -7 -36 -15 -46 -8 -11 -15 -30 -15 -43 0 -26 -51 -256
-75 -339 -8 -28 -15 -62 -15 -75 -1 -13 -7 -35 -15 -49 -8 -14 -14 -38 -15
-53 0 -16 -4 -37 -10 -47 -15 -28 -2 -50 31 -50 35 0 43 14 63 112 18 86 32
128 43 128 91 5 207 0 215 -8 6 -6 14 -30 19 -54 4 -24 12 -61 18 -83 5 -22
12 -52 16 -67 5 -25 10 -28 46 -28 l41 0 -6 38 c-16 92 -41 193 -67 272 -4 14
-10 41 -14 60 -14 84 -38 187 -48 210 -5 14 -14 48 -18 75 -4 28 -12 70 -18
95 -6 25 -13 55 -16 67 -10 43 -39 59 -87 46z m40 -190 c8 -21 17 -60 22 -88
4 -27 16 -86 25 -131 25 -111 22 -116 -67 -112 l-73 3 1 35 c1 19 11 82 23
140 12 58 24 119 27 135 12 68 23 72 42 18z"/>
<path d="M12228 3309 c-17 -9 -18 -41 -18 -429 0 -404 1 -420 19 -430 22 -11
316 -12 359 -1 21 6 28 14 30 40 2 19 -1 38 -7 44 -6 6 -70 9 -157 8 -97 -1
-151 3 -160 10 -20 16 -20 272 -1 287 8 7 71 13 153 14 l139 3 3 34 c2 18 -1
38 -7 44 -6 6 -63 11 -139 11 -94 1 -133 5 -145 15 -24 19 -25 212 -1 235 13
13 42 16 160 16 144 0 144 0 156 25 8 19 8 31 0 50 l-12 25 -164 0 c-90 0
-170 2 -178 5 -7 2 -21 0 -30 -6z"/>
<path d="M14608 3309 c-17 -9 -18 -41 -18 -429 0 -409 0 -420 20 -430 14 -8
26 -8 40 0 20 10 20 21 20 430 0 404 -1 420 -19 430 -23 12 -22 12 -43 -1z"/>
<path d="M4117 3304 c-13 -13 -8 -842 4 -850 13 -8 367 -14 387 -7 7 3 12 23
12 49 0 43 -1 44 -32 45 -18 0 -88 1 -156 2 -97 2 -125 5 -132 17 -11 16 -14
249 -4 274 5 14 27 16 139 16 140 0 165 7 165 48 0 35 -14 39 -153 44 -105 3
-141 8 -148 19 -15 23 -11 225 4 237 8 7 73 13 163 14 l149 3 0 45 0 45 -196
3 c-107 1 -198 -1 -202 -4z"/>
<path d="M5794 3298 c-4 -6 -8 -195 -9 -420 -1 -347 1 -411 14 -421 10 -9 66
-11 198 -10 102 2 189 5 194 8 5 4 9 24 9 46 0 37 -1 39 -32 40 -18 0 -91 1
-163 2 l-130 2 0 150 0 150 145 5 c143 5 145 5 148 29 2 12 1 33 -2 45 -5 20
-10 21 -148 21 l-143 0 0 130 0 130 149 3 c90 1 155 7 163 14 14 11 17 46 7
72 -5 14 -32 16 -199 16 -137 0 -196 -3 -201 -12z"/>
<path d="M8926 3294 c-3 -8 -6 -199 -6 -424 0 -314 3 -410 13 -418 16 -13 357
-12 375 1 6 5 12 27 12 48 l0 39 -137 0 c-201 0 -183 -15 -183 155 0 121 2
144 16 149 9 3 71 6 140 6 120 0 124 1 139 24 13 19 14 29 5 45 -10 20 -20 21
-136 21 -69 0 -134 5 -145 10 -17 10 -19 22 -19 130 0 142 -17 129 180 133
l135 2 0 45 0 45 -191 3 c-168 2 -192 0 -198 -14z"/>
<path d="M13487 3304 c-13 -13 -8 -842 4 -850 20 -12 280 -4 314 10 17 7 43
28 58 45 73 87 69 299 -8 371 -31 29 -31 34 0 68 30 32 40 89 32 190 -5 63
-10 80 -35 111 -16 20 -43 40 -63 45 -42 11 -292 20 -302 10z m290 -121 c36
-40 44 -67 37 -129 -6 -45 -12 -59 -41 -84 -31 -27 -40 -30 -106 -30 -103 0
-105 3 -109 135 -1 61 1 116 5 123 6 8 37 12 98 12 85 0 91 -1 116 -27z m-9
-341 c6 -5 23 -23 37 -42 20 -27 25 -46 25 -91 0 -93 -9 -118 -51 -146 -35
-23 -46 -25 -123 -22 -46 2 -87 7 -90 10 -9 8 -10 274 -2 288 8 13 184 15 204
3z"/>
<path d="M14024 3300 c-7 -7 -9 -152 -7 -428 l3 -417 32 0 33 0 5 175 5 175
102 3 c100 3 103 2 134 -26 l31 -28 8 -135 c4 -73 11 -142 15 -151 8 -21 36
-31 59 -22 14 5 16 20 11 118 -9 177 -14 213 -35 248 -32 53 -34 60 -22 77 42
59 55 98 56 171 1 99 -9 143 -41 181 -47 55 -97 69 -247 69 -77 0 -136 -4
-142 -10z m311 -116 c52 -56 56 -178 7 -235 l-24 -30 -112 3 -111 3 -3 129
c-1 72 0 136 2 143 4 10 33 13 111 13 102 0 107 -1 130 -26z"/>
<path d="M14822 3297 c-15 -17 -18 -825 -4 -839 6 -6 94 -10 196 -11 156 -2
188 1 196 13 13 20 13 67 0 75 -5 3 -72 6 -147 7 -76 0 -146 5 -155 10 -16 8
-18 25 -18 141 0 90 4 137 12 145 8 8 55 12 145 12 122 0 133 2 143 20 14 26
2 70 -19 71 -9 1 -70 0 -137 -1 -96 -1 -123 1 -133 13 -18 23 -18 236 0 248 8
5 78 9 157 9 142 0 142 0 154 25 8 19 8 31 0 50 l-12 25 -184 0 c-140 0 -186
-3 -194 -13z"/>
<path d="M15346 3302 c-3 -5 -6 -197 -6 -427 -1 -427 -1 -435 35 -435 36 0 40
17 45 207 l5 188 125 5 125 5 0 45 0 45 -105 2 c-164 4 -150 -8 -150 138 0
147 -16 134 170 138 l125 2 0 45 0 45 -182 3 c-100 1 -184 -2 -187 -6z"/>
<path d="M6327 2564 c-11 -11 -8 -102 4 -109 26 -17 30 -57 8 -102 -16 -32
-19 -47 -10 -56 13 -13 51 18 51 43 0 9 5 21 10 26 7 7 10 49 8 105 l-3 94
-30 3 c-17 2 -34 0 -38 -4z"/>
<path d="M1529 2217 c-62 -16 -113 -68 -137 -140 -12 -35 -22 -82 -22 -105 0
-52 26 -130 52 -159 24 -26 138 -83 167 -83 11 0 21 -4 21 -9 0 -5 13 -14 29
-19 17 -6 44 -30 60 -53 36 -48 41 -101 15 -152 -29 -56 -52 -71 -119 -75 -55
-4 -64 -1 -93 23 -36 30 -62 83 -62 126 0 33 -30 54 -62 43 -19 -6 -20 -12
-16 -68 12 -139 103 -227 233 -225 52 1 96 18 134 51 41 37 58 72 71 151 15
86 -5 185 -46 228 -25 27 -99 69 -119 69 -4 0 -36 13 -70 29 -83 39 -105 68
-105 137 0 96 37 136 123 136 46 -1 56 -5 83 -35 18 -19 34 -51 38 -73 9 -46
22 -64 47 -64 34 0 42 35 24 108 -15 62 -36 97 -77 130 -27 22 -130 39 -169
29z"/>
<path d="M3148 2216 c-42 -13 -128 -80 -128 -100 0 -8 -6 -19 -14 -25 -19 -16
-41 -91 -62 -212 -17 -98 -15 -139 15 -315 19 -108 99 -214 176 -233 177 -45
293 53 334 283 14 74 14 239 1 329 -20 137 -97 243 -197 272 -59 17 -74 17
-125 1z m140 -113 c43 -28 78 -81 95 -148 12 -47 15 -282 3 -340 -30 -155
-133 -231 -243 -178 -86 40 -127 162 -120 353 2 63 9 135 16 159 17 62 57 126
94 150 41 26 117 28 155 4z"/>
<path d="M4345 2218 c-88 -23 -158 -114 -192 -250 -11 -42 -16 -108 -16 -203
0 -149 15 -244 49 -304 10 -18 25 -44 32 -57 18 -33 88 -71 144 -79 59 -9 110
7 166 52 37 31 43 32 48 16 11 -35 21 -48 40 -48 18 0 19 11 19 220 l0 220
-115 0 -115 0 0 -40 0 -40 78 -3 c74 -3 78 -4 88 -30 8 -19 6 -37 -5 -67 -9
-22 -16 -48 -16 -58 0 -27 -50 -97 -81 -113 -90 -46 -200 16 -235 133 -21 69
-19 334 3 399 20 62 54 111 90 135 36 24 114 25 149 3 30 -20 74 -92 74 -122
0 -40 69 -54 84 -17 3 8 -6 47 -19 87 -35 108 -85 149 -205 172 -14 2 -43 0
-65 -6z"/>
<path d="M12185 2217 c-93 -27 -173 -123 -194 -233 -29 -154 -34 -224 -22
-311 24 -169 42 -216 109 -285 101 -105 267 -86 354 40 17 25 35 61 40 81 49
194 50 363 1 531 -21 74 -106 160 -176 178 -55 14 -58 14 -112 -1z m118 -108
c68 -35 100 -97 117 -226 12 -98 1 -260 -23 -331 -32 -92 -98 -140 -179 -129
-50 7 -82 28 -111 75 -40 63 -49 102 -54 237 -8 198 27 310 114 366 32 20 104
24 136 8z"/>
<path d="M6704 2209 c-56 -16 -112 -77 -144 -158 -17 -40 -30 -85 -30 -100 0
-14 -7 -48 -15 -75 -18 -58 -19 -123 -4 -197 6 -30 14 -76 19 -104 9 -53 25
-100 53 -152 59 -110 232 -135 320 -46 36 36 38 35 62 -12 6 -11 18 -21 28
-23 16 -3 17 13 19 187 1 105 2 206 2 224 l1 32 -115 0 -115 0 -3 -37 c-4 -43
3 -46 103 -50 60 -3 60 -3 63 -35 3 -33 -27 -146 -50 -183 -20 -33 -81 -60
-134 -60 -44 0 -51 4 -93 48 -39 41 -49 58 -63 123 -22 94 -25 293 -4 341 7
18 19 51 26 73 22 72 78 115 151 115 72 0 125 -49 143 -132 8 -35 39 -53 66
-38 25 14 25 29 -1 107 -44 130 -156 190 -285 152z"/>
<path d="M8425 2210 c-73 -23 -129 -96 -170 -220 -26 -78 -27 -367 -1 -455 20
-66 72 -150 111 -178 69 -49 191 -43 247 14 37 37 53 37 67 -1 5 -16 16 -30
24 -30 34 0 37 25 35 236 l-3 209 -115 0 -115 0 0 -40 0 -40 78 -3 77 -3 0
-58 c0 -69 -35 -158 -75 -189 -74 -58 -185 -29 -232 62 -17 33 -40 134 -50
225 -8 76 23 232 61 297 43 77 125 106 195 70 30 -16 81 -83 81 -107 0 -20 37
-59 55 -59 67 0 6 194 -79 247 -44 28 -138 40 -191 23z"/>
<path d="M11598 2213 c-38 -6 -118 -83 -118 -114 0 -14 -5 -30 -10 -35 -16
-16 -16 -144 0 -189 8 -22 26 -53 40 -69 23 -26 115 -76 139 -76 6 0 34 -12
62 -27 96 -52 127 -147 73 -226 -14 -21 -37 -42 -50 -48 -58 -21 -140 -5 -174
36 -7 8 -20 44 -29 78 -16 61 -17 62 -51 62 l-35 0 1 -52 c2 -73 46 -159 102
-198 40 -27 50 -30 122 -29 96 2 132 20 173 86 53 85 52 247 0 322 -25 35 -99
86 -126 86 -6 0 -38 13 -72 29 -81 38 -105 69 -105 132 0 97 35 139 116 139
66 0 108 -31 126 -93 19 -70 51 -94 78 -61 11 12 10 28 -4 88 -14 61 -24 79
-59 114 -39 38 -47 41 -107 46 -36 2 -77 2 -92 -1z"/>
<path d="M1882 2198 c-13 -13 -16 -47 -6 -72 5 -13 22 -16 78 -16 39 0 78 -5
86 -10 13 -8 16 -65 20 -382 l5 -373 24 0 c19 0 27 7 33 30 5 17 8 182 6 369
-2 393 -10 366 103 366 72 0 99 14 99 50 0 46 -19 50 -234 50 -144 0 -205 -3
-214 -12z"/>
<path d="M2415 2196 c-17 -12 -18 -34 -16 -427 2 -304 6 -416 14 -421 7 -5 23
-7 37 -6 l25 3 5 180 5 180 97 3 c95 3 98 2 130 -27 l33 -29 5 -140 c6 -156
13 -175 64 -170 29 3 31 6 29 38 -2 19 -7 94 -11 165 -10 136 -20 178 -46 188
-22 9 -20 40 4 62 67 60 64 302 -3 358 -60 49 -91 57 -225 57 -92 0 -133 -4
-147 -14z m285 -104 c48 -24 65 -71 55 -157 -5 -47 -13 -73 -30 -93 -23 -26
-26 -27 -132 -27 l-108 0 -3 134 c-1 74 0 141 2 148 8 21 172 17 216 -5z"/>
<path d="M3586 2188 c-12 -19 -14 -94 -16 -415 -1 -273 2 -399 10 -413 8 -15
19 -20 38 -18 l27 3 3 315 c2 303 9 366 31 308 5 -15 15 -29 20 -33 6 -3 11
-16 11 -29 0 -12 4 -26 8 -31 5 -6 19 -39 32 -75 13 -36 29 -76 35 -90 7 -14
34 -81 60 -150 81 -217 93 -233 161 -216 l24 6 0 425 0 425 -25 6 c-54 13 -55
9 -55 -327 0 -177 -4 -309 -9 -309 -12 0 -51 67 -51 87 0 8 -6 27 -14 41 -20
38 -40 87 -67 162 -12 36 -25 70 -29 75 -4 6 -10 19 -13 30 -18 64 -68 188
-87 215 -27 38 -72 42 -94 8z"/>
<path d="M4986 2202 c-8 -13 -9 -839 -1 -851 7 -13 341 -16 348 -3 2 4 7 19
11 34 11 49 -10 58 -150 58 -68 0 -125 1 -126 3 -1 1 -5 173 -8 382 l-5 380
-32 3 c-17 2 -34 -1 -37 -6z"/>
<path d="M5604 2203 c-15 -11 -32 -61 -39 -117 -4 -27 -10 -56 -15 -65 -12
-26 -37 -120 -55 -206 -8 -44 -27 -125 -41 -180 -14 -55 -29 -118 -34 -140 -5
-22 -14 -58 -21 -81 -15 -51 -7 -74 25 -74 30 0 56 34 56 72 0 14 5 39 11 55
6 15 14 48 18 73 l6 45 113 0 114 0 19 -55 c10 -30 19 -68 19 -85 1 -50 31
-100 63 -103 39 -5 43 17 18 117 -11 48 -21 96 -21 107 0 11 -6 28 -14 39 -7
11 -16 36 -19 55 -5 30 -24 128 -56 280 -4 19 -13 45 -19 57 -7 12 -12 39 -13
60 0 21 -8 63 -18 93 -17 51 -20 55 -52 58 -19 1 -39 -1 -45 -5z m59 -218 c3
-22 10 -58 15 -80 24 -98 41 -197 36 -210 -5 -11 -24 -15 -75 -15 -90 0 -93 7
-68 125 11 50 22 106 26 125 8 47 43 114 53 104 4 -5 10 -27 13 -49z"/>
<path d="M5965 2197 c-3 -6 -4 -201 -3 -432 l3 -420 27 -3 c18 -2 30 3 36 15
6 11 10 139 11 307 0 171 4 293 10 299 11 11 31 1 31 -18 0 -7 14 -43 30 -80
17 -37 30 -71 30 -76 0 -5 14 -38 30 -72 17 -35 30 -69 30 -75 0 -6 6 -26 14
-44 8 -18 25 -60 37 -93 13 -33 27 -64 31 -69 4 -6 8 -17 8 -27 0 -9 10 -28
21 -43 17 -22 28 -27 58 -24 l36 3 3 419 c1 301 -1 423 -9 432 -13 16 -45 19
-54 5 -3 -5 -5 -147 -5 -315 -1 -168 -4 -307 -8 -310 -17 -10 -32 15 -87 154
-32 79 -61 151 -66 160 -4 8 -29 69 -55 135 -75 193 -70 185 -115 185 -23 0
-42 -5 -44 -13z"/>
<path d="M7167 2203 c-4 -3 -7 -154 -7 -334 0 -309 1 -332 22 -394 28 -85 72
-130 145 -146 75 -17 149 0 189 44 81 87 84 108 84 503 0 353 1 344 -55 330
l-25 -6 0 -320 c0 -344 -4 -375 -55 -428 -50 -53 -154 -34 -197 37 -22 35 -23
43 -26 366 -3 205 -8 335 -14 343 -11 13 -50 17 -61 5z"/>
<path d="M7895 2202 c-16 -11 -56 -155 -74 -262 -4 -25 -13 -55 -19 -67 -7
-12 -12 -33 -12 -47 0 -14 -4 -35 -9 -48 -5 -13 -15 -50 -21 -83 -7 -33 -22
-91 -32 -130 -26 -94 -39 -154 -41 -190 -2 -25 2 -31 22 -33 13 -2 28 1 33 6
13 13 47 111 48 137 0 30 31 105 44 106 46 5 193 -4 202 -12 7 -6 16 -29 19
-52 12 -69 36 -161 47 -174 14 -17 53 -16 67 1 10 11 9 25 -3 61 -9 25 -16 56
-16 68 -1 12 -7 33 -15 47 -8 14 -14 39 -15 56 0 18 -6 54 -14 80 -8 27 -29
112 -46 189 -17 77 -36 158 -41 180 -6 22 -15 60 -20 84 -13 63 -34 91 -67 91
-15 0 -32 -4 -37 -8z m50 -179 c3 -10 15 -63 26 -118 10 -55 23 -121 28 -147
15 -70 11 -75 -69 -76 -90 0 -96 7 -75 90 9 34 20 81 25 103 17 80 31 140 35
153 6 18 22 15 30 -5z"/>
<path d="M8875 2197 c-3 -6 -4 -201 -3 -432 l3 -420 190 -2 c105 -2 195 0 202
5 21 13 26 58 8 76 -14 13 -40 16 -164 16 -101 0 -151 4 -159 12 -8 8 -12 54
-12 140 0 116 2 128 19 138 11 5 75 10 143 10 133 0 148 5 148 49 0 53 -9 56
-152 56 -73 0 -139 4 -147 9 -11 7 -13 32 -9 118 3 60 10 114 16 120 5 5 69
10 143 10 74 0 142 5 152 10 20 10 24 67 5 86 -17 17 -377 17 -383 -1z"/>
<path d="M9741 2196 c-12 -14 -43 -121 -62 -211 -17 -84 -31 -142 -51 -205
-11 -36 -29 -108 -39 -160 -36 -172 -39 -183 -50 -196 -6 -7 -9 -28 -7 -46 2
-26 8 -34 26 -36 31 -5 62 25 62 58 0 15 7 44 15 63 8 20 15 49 15 65 0 51 17
61 109 65 47 2 93 2 103 -1 24 -6 42 -49 62 -148 18 -87 28 -104 63 -104 40 0
39 8 -6 230 -4 19 -13 45 -19 57 -7 12 -12 32 -12 45 0 13 -20 104 -45 203
-24 99 -45 189 -45 200 0 12 -9 45 -19 75 -18 51 -22 55 -54 58 -21 2 -38 -3
-46 -12z m68 -236 c6 -36 21 -102 32 -148 30 -123 29 -126 -59 -130 -67 -3
-73 -1 -81 20 -4 12 -4 36 0 52 33 128 39 155 39 173 0 29 40 117 49 107 4 -5
13 -38 20 -74z"/>
<path d="M10105 2197 c-3 -6 -4 -201 -3 -432 l3 -420 35 0 35 0 6 315 c3 173
7 317 7 318 11 22 45 -55 93 -205 5 -18 14 -35 19 -38 6 -4 10 -15 10 -25 0
-10 14 -48 30 -83 17 -36 30 -71 30 -77 0 -7 7 -25 15 -41 8 -16 22 -42 30
-58 8 -16 15 -37 15 -48 1 -10 9 -28 20 -41 15 -18 27 -23 57 -20 l38 3 3 421
c2 459 3 454 -53 440 l-25 -6 0 -303 c0 -264 -6 -345 -23 -327 -10 11 -167
417 -167 432 0 9 -4 19 -9 22 -4 3 -18 36 -31 73 -33 100 -43 113 -91 113 -22
0 -42 -5 -44 -13z"/>
<path d="M10692 2198 c-17 -17 -17 -829 0 -846 8 -8 50 -12 127 -11 211 1 258
43 311 278 15 65 15 256 1 294 -6 16 -11 44 -11 63 0 46 -55 156 -90 183 -51
37 -109 51 -220 51 -69 0 -110 -4 -118 -12z m268 -109 c40 -25 57 -54 80 -138
52 -186 5 -451 -87 -495 -36 -17 -178 -23 -187 -8 -8 13 -10 638 -2 651 12 19
160 11 196 -10z"/>
<path d="M12616 2194 c-14 -13 -16 -66 -16 -423 0 -441 0 -437 52 -429 l23 3
3 310 c2 284 11 377 27 299 3 -16 10 -45 15 -64 5 -19 18 -82 30 -140 32 -156
50 -239 66 -296 8 -28 14 -60 14 -70 0 -11 5 -25 12 -32 16 -16 63 -15 77 1
10 13 47 170 58 242 2 17 10 53 18 80 17 62 30 128 46 223 8 55 14 71 22 63 8
-8 13 -108 17 -314 l5 -302 23 -3 c54 -8 53 -14 47 436 -5 445 -3 432 -57 432
-42 0 -58 -10 -58 -37 0 -13 -5 -34 -12 -46 -6 -12 -15 -40 -19 -62 -36 -184
-70 -338 -80 -363 -5 -13 -9 -36 -9 -51 0 -16 -7 -42 -15 -57 -8 -16 -15 -39
-15 -51 0 -30 -18 -39 -24 -11 -14 66 -19 91 -36 183 -31 160 -39 194 -50 214
-5 11 -10 35 -10 54 0 18 -7 56 -15 83 -8 27 -15 60 -15 74 0 44 -26 70 -70
70 -22 0 -45 -7 -54 -16z"/>
<path d="M13286 2202 c-3 -5 -6 -196 -7 -426 -1 -348 1 -420 12 -427 22 -14
373 -11 387 3 18 18 15 75 -4 82 -9 3 -80 6 -159 6 -127 0 -144 2 -150 18 -8
20 -7 260 1 273 3 5 68 9 144 9 130 0 140 1 150 21 6 11 8 33 5 50 l-7 29 -96
2 c-149 3 -193 5 -199 12 -3 3 -6 56 -5 117 0 96 2 115 17 126 13 9 58 12 154
12 120 0 137 2 149 18 14 20 8 63 -11 75 -16 10 -375 10 -381 0z"/>
<path d="M14032 2198 c-14 -14 -17 -824 -3 -846 4 -8 19 -12 32 -10 l24 3 3
315 c1 173 6 318 11 323 10 10 53 -78 91 -183 13 -36 29 -74 36 -85 6 -11 14
-35 18 -53 3 -18 16 -56 29 -85 45 -97 57 -128 57 -143 0 -8 11 -33 25 -55 24
-37 29 -40 63 -37 l37 3 0 430 0 430 -30 0 -30 0 -5 -317 c-3 -174 -8 -319
-11 -323 -9 -9 -42 51 -64 115 -10 30 -27 75 -38 100 -11 25 -32 81 -48 125
-15 44 -37 105 -49 135 -12 30 -26 69 -31 86 -21 70 -82 107 -117 72z"/>
<path d="M14611 2196 c-9 -11 -11 -103 -9 -353 l3 -338 28 -57 c54 -109 144
-149 262 -117 48 13 125 88 125 122 0 12 7 44 15 71 12 39 15 112 15 355 0
168 -4 312 -9 319 -5 8 -22 12 -42 10 l-34 -3 -5 -340 c-6 -364 -8 -382 -58
-419 -14 -11 -47 -21 -73 -24 -45 -4 -50 -2 -90 37 -55 54 -58 70 -58 424 -1
178 -5 296 -11 308 -13 22 -43 25 -59 5z"/>
<path d="M15175 2188 c-3 -13 -4 -207 -3 -433 l3 -410 132 -3 c116 -2 137 0
172 17 102 52 149 170 158 396 5 120 -5 199 -32 260 -7 17 -16 42 -19 58 -9
39 -78 103 -133 121 -32 11 -83 16 -160 16 -109 0 -113 -1 -118 -22z m287
-108 c36 -24 68 -78 68 -113 0 -13 5 -28 11 -34 6 -6 11 -62 11 -134 1 -174
-27 -286 -85 -335 -25 -21 -38 -24 -112 -24 -75 0 -86 2 -95 20 -8 14 -11 120
-9 321 1 257 4 302 17 316 24 24 151 13 194 -17z"/>
<path d="M15765 2197 c-3 -6 -4 -201 -3 -432 l3 -420 29 -3 c16 -2 32 2 37 10
13 20 11 815 -1 839 -12 21 -58 26 -65 6z"/>
<path d="M15922 2198 c-13 -13 -16 -47 -6 -72 5 -13 22 -16 79 -16 112 0 106
25 99 -376 -7 -382 -5 -397 48 -392 l33 3 3 369 c1 252 6 373 13 383 8 9 37
13 90 13 76 0 79 1 85 25 3 14 3 36 0 50 l-6 25 -213 0 c-152 0 -216 -3 -225
-12z"/>
<path d="M16414 2197 c-2 -7 14 -60 36 -118 64 -162 131 -322 143 -344 7 -12
14 -92 17 -205 l5 -185 34 -3 c20 -2 37 2 42 10 5 7 9 93 9 190 0 97 4 179 9
182 5 3 12 18 16 33 3 16 20 56 36 91 16 34 29 69 29 76 0 8 4 17 9 20 4 3 18
36 31 73 12 37 30 86 40 108 32 71 30 80 -15 80 -47 0 -44 4 -114 -185 -74
-200 -74 -201 -90 -198 -14 3 -31 43 -105 243 -48 129 -59 145 -97 145 -16 0
-32 -6 -35 -13z"/>
</g>
</svg>
